<mxfile host="app.diagrams.net" agent="Mozilla/5.0 (Macintosh; Intel Mac OS X 10_15_7) AppleWebKit/537.36 (KHTML, like Gecko) Chrome/131.0.0.0 Safari/537.36" version="25.0.3">
  <diagram name="Trang-1" id="qSJsHm7JQV5slaFSP9At">
    <mxGraphModel dx="1434" dy="785" grid="1" gridSize="10" guides="1" tooltips="1" connect="1" arrows="1" fold="1" page="1" pageScale="1" pageWidth="827" pageHeight="1169" math="0" shadow="0">
      <root>
        <mxCell id="0" />
        <mxCell id="1" parent="0" />
        <mxCell id="9o4RHv9QJDKDC0NQb8If-1" value="Fact_sales&lt;div&gt;&lt;br&gt;&lt;/div&gt;" style="rounded=0;whiteSpace=wrap;html=1;labelBackgroundColor=none;fillColor=#F2CC8F;strokeColor=#E07A5F;fontColor=#393C56;" vertex="1" parent="1">
          <mxGeometry x="400" y="390" width="120" height="60" as="geometry" />
        </mxCell>
        <mxCell id="9o4RHv9QJDKDC0NQb8If-2" value="&lt;div&gt;Fact_inventory&lt;/div&gt;" style="rounded=0;whiteSpace=wrap;html=1;labelBackgroundColor=none;fillColor=#F2CC8F;strokeColor=#E07A5F;fontColor=#393C56;" vertex="1" parent="1">
          <mxGeometry x="1070" y="260" width="120" height="60" as="geometry" />
        </mxCell>
        <mxCell id="9o4RHv9QJDKDC0NQb8If-8" style="edgeStyle=orthogonalEdgeStyle;rounded=0;orthogonalLoop=1;jettySize=auto;html=1;entryX=0.5;entryY=0;entryDx=0;entryDy=0;endArrow=none;endFill=0;labelBackgroundColor=none;strokeColor=#E07A5F;fontColor=default;" edge="1" parent="1" source="9o4RHv9QJDKDC0NQb8If-3" target="9o4RHv9QJDKDC0NQb8If-1">
          <mxGeometry relative="1" as="geometry" />
        </mxCell>
        <mxCell id="9o4RHv9QJDKDC0NQb8If-3" value="dim_customer" style="rounded=0;whiteSpace=wrap;html=1;labelBackgroundColor=none;fillColor=#F2CC8F;strokeColor=#E07A5F;fontColor=#393C56;" vertex="1" parent="1">
          <mxGeometry x="400" y="200" width="120" height="60" as="geometry" />
        </mxCell>
        <mxCell id="9o4RHv9QJDKDC0NQb8If-12" style="edgeStyle=orthogonalEdgeStyle;rounded=0;orthogonalLoop=1;jettySize=auto;html=1;entryX=1;entryY=0.75;entryDx=0;entryDy=0;endArrow=none;endFill=0;labelBackgroundColor=none;strokeColor=#E07A5F;fontColor=default;" edge="1" parent="1" source="9o4RHv9QJDKDC0NQb8If-4" target="9o4RHv9QJDKDC0NQb8If-1">
          <mxGeometry relative="1" as="geometry" />
        </mxCell>
        <mxCell id="9o4RHv9QJDKDC0NQb8If-4" value="&lt;div&gt;dim_suplliers&lt;/div&gt;" style="rounded=0;whiteSpace=wrap;html=1;labelBackgroundColor=none;fillColor=#F2CC8F;strokeColor=#E07A5F;fontColor=#393C56;" vertex="1" parent="1">
          <mxGeometry x="590" y="460" width="120" height="60" as="geometry" />
        </mxCell>
        <mxCell id="9o4RHv9QJDKDC0NQb8If-11" style="edgeStyle=orthogonalEdgeStyle;rounded=0;orthogonalLoop=1;jettySize=auto;html=1;entryX=0;entryY=0.75;entryDx=0;entryDy=0;endArrow=none;endFill=0;labelBackgroundColor=none;strokeColor=#E07A5F;fontColor=default;" edge="1" parent="1" source="9o4RHv9QJDKDC0NQb8If-5" target="9o4RHv9QJDKDC0NQb8If-1">
          <mxGeometry relative="1" as="geometry" />
        </mxCell>
        <mxCell id="9o4RHv9QJDKDC0NQb8If-5" value="&lt;div&gt;dim_date&lt;/div&gt;" style="rounded=0;whiteSpace=wrap;html=1;labelBackgroundColor=none;fillColor=#F2CC8F;strokeColor=#E07A5F;fontColor=#393C56;" vertex="1" parent="1">
          <mxGeometry x="220" y="470" width="120" height="60" as="geometry" />
        </mxCell>
        <mxCell id="9o4RHv9QJDKDC0NQb8If-10" style="edgeStyle=orthogonalEdgeStyle;rounded=0;orthogonalLoop=1;jettySize=auto;html=1;entryX=1;entryY=0.5;entryDx=0;entryDy=0;endArrow=none;endFill=0;labelBackgroundColor=none;strokeColor=#E07A5F;fontColor=default;" edge="1" parent="1" source="9o4RHv9QJDKDC0NQb8If-6" target="9o4RHv9QJDKDC0NQb8If-1">
          <mxGeometry relative="1" as="geometry" />
        </mxCell>
        <mxCell id="9o4RHv9QJDKDC0NQb8If-6" value="&lt;div&gt;dim_product&lt;/div&gt;" style="rounded=0;whiteSpace=wrap;html=1;labelBackgroundColor=none;fillColor=#F2CC8F;strokeColor=#E07A5F;fontColor=#393C56;" vertex="1" parent="1">
          <mxGeometry x="560" y="300" width="120" height="60" as="geometry" />
        </mxCell>
        <mxCell id="9o4RHv9QJDKDC0NQb8If-9" style="edgeStyle=orthogonalEdgeStyle;rounded=0;orthogonalLoop=1;jettySize=auto;html=1;entryX=0;entryY=0.5;entryDx=0;entryDy=0;endArrow=none;endFill=0;labelBackgroundColor=none;strokeColor=#E07A5F;fontColor=default;" edge="1" parent="1" source="9o4RHv9QJDKDC0NQb8If-7" target="9o4RHv9QJDKDC0NQb8If-1">
          <mxGeometry relative="1" as="geometry" />
        </mxCell>
        <mxCell id="9o4RHv9QJDKDC0NQb8If-7" value="&lt;div&gt;dim_employee&lt;/div&gt;" style="rounded=0;whiteSpace=wrap;html=1;labelBackgroundColor=none;fillColor=#F2CC8F;strokeColor=#E07A5F;fontColor=#393C56;" vertex="1" parent="1">
          <mxGeometry x="230" y="300" width="120" height="60" as="geometry" />
        </mxCell>
        <mxCell id="9o4RHv9QJDKDC0NQb8If-19" style="edgeStyle=orthogonalEdgeStyle;rounded=0;orthogonalLoop=1;jettySize=auto;html=1;strokeColor=#E07A5F;fontColor=#393C56;fillColor=#F2CC8F;endArrow=none;endFill=0;" edge="1" parent="1" source="9o4RHv9QJDKDC0NQb8If-14" target="9o4RHv9QJDKDC0NQb8If-2">
          <mxGeometry relative="1" as="geometry" />
        </mxCell>
        <mxCell id="9o4RHv9QJDKDC0NQb8If-14" value="dim_product" style="rounded=0;whiteSpace=wrap;html=1;labelBackgroundColor=none;fillColor=#F2CC8F;strokeColor=#E07A5F;fontColor=#393C56;" vertex="1" parent="1">
          <mxGeometry x="1070" y="130" width="120" height="60" as="geometry" />
        </mxCell>
        <mxCell id="9o4RHv9QJDKDC0NQb8If-21" style="edgeStyle=orthogonalEdgeStyle;rounded=0;orthogonalLoop=1;jettySize=auto;html=1;entryX=0;entryY=0.5;entryDx=0;entryDy=0;strokeColor=#E07A5F;fontColor=#393C56;fillColor=#F2CC8F;endArrow=none;endFill=0;" edge="1" parent="1" source="9o4RHv9QJDKDC0NQb8If-16" target="9o4RHv9QJDKDC0NQb8If-2">
          <mxGeometry relative="1" as="geometry" />
        </mxCell>
        <mxCell id="9o4RHv9QJDKDC0NQb8If-16" value="dim_date" style="rounded=0;whiteSpace=wrap;html=1;labelBackgroundColor=none;fillColor=#F2CC8F;strokeColor=#E07A5F;fontColor=#393C56;" vertex="1" parent="1">
          <mxGeometry x="860" y="260" width="120" height="60" as="geometry" />
        </mxCell>
        <mxCell id="9o4RHv9QJDKDC0NQb8If-20" style="edgeStyle=orthogonalEdgeStyle;rounded=0;orthogonalLoop=1;jettySize=auto;html=1;strokeColor=#E07A5F;fontColor=#393C56;fillColor=#F2CC8F;endArrow=none;endFill=0;" edge="1" parent="1" source="9o4RHv9QJDKDC0NQb8If-17" target="9o4RHv9QJDKDC0NQb8If-2">
          <mxGeometry relative="1" as="geometry" />
        </mxCell>
        <mxCell id="9o4RHv9QJDKDC0NQb8If-17" value="dimm_suppliers" style="rounded=0;whiteSpace=wrap;html=1;labelBackgroundColor=none;fillColor=#F2CC8F;strokeColor=#E07A5F;fontColor=#393C56;" vertex="1" parent="1">
          <mxGeometry x="1290" y="260" width="120" height="60" as="geometry" />
        </mxCell>
        <mxCell id="9o4RHv9QJDKDC0NQb8If-22" value="fact_purchase_order" style="rounded=0;whiteSpace=wrap;html=1;labelBackgroundColor=none;fillColor=#F2CC8F;strokeColor=#E07A5F;fontColor=#393C56;" vertex="1" parent="1">
          <mxGeometry x="950" y="670" width="120" height="60" as="geometry" />
        </mxCell>
        <mxCell id="9o4RHv9QJDKDC0NQb8If-30" style="edgeStyle=orthogonalEdgeStyle;rounded=0;orthogonalLoop=1;jettySize=auto;html=1;strokeColor=#E07A5F;fontColor=#393C56;fillColor=#F2CC8F;" edge="1" parent="1" source="9o4RHv9QJDKDC0NQb8If-23" target="9o4RHv9QJDKDC0NQb8If-22">
          <mxGeometry relative="1" as="geometry" />
        </mxCell>
        <mxCell id="9o4RHv9QJDKDC0NQb8If-23" value="dimm_suppliers" style="rounded=0;whiteSpace=wrap;html=1;labelBackgroundColor=none;fillColor=#F2CC8F;strokeColor=#E07A5F;fontColor=#393C56;" vertex="1" parent="1">
          <mxGeometry x="1150" y="670" width="120" height="60" as="geometry" />
        </mxCell>
        <mxCell id="9o4RHv9QJDKDC0NQb8If-31" style="edgeStyle=orthogonalEdgeStyle;rounded=0;orthogonalLoop=1;jettySize=auto;html=1;exitX=0.5;exitY=0;exitDx=0;exitDy=0;entryX=0.5;entryY=1;entryDx=0;entryDy=0;strokeColor=#E07A5F;fontColor=#393C56;fillColor=#F2CC8F;" edge="1" parent="1" source="9o4RHv9QJDKDC0NQb8If-24" target="9o4RHv9QJDKDC0NQb8If-22">
          <mxGeometry relative="1" as="geometry" />
        </mxCell>
        <mxCell id="9o4RHv9QJDKDC0NQb8If-24" value="dim_date" style="rounded=0;whiteSpace=wrap;html=1;labelBackgroundColor=none;fillColor=#F2CC8F;strokeColor=#E07A5F;fontColor=#393C56;" vertex="1" parent="1">
          <mxGeometry x="820" y="800" width="120" height="60" as="geometry" />
        </mxCell>
        <mxCell id="9o4RHv9QJDKDC0NQb8If-28" style="edgeStyle=orthogonalEdgeStyle;rounded=0;orthogonalLoop=1;jettySize=auto;html=1;entryX=0.5;entryY=0;entryDx=0;entryDy=0;strokeColor=#E07A5F;fontColor=#393C56;fillColor=#F2CC8F;" edge="1" parent="1" source="9o4RHv9QJDKDC0NQb8If-25" target="9o4RHv9QJDKDC0NQb8If-22">
          <mxGeometry relative="1" as="geometry" />
        </mxCell>
        <mxCell id="9o4RHv9QJDKDC0NQb8If-25" value="dim_product" style="rounded=0;whiteSpace=wrap;html=1;labelBackgroundColor=none;fillColor=#F2CC8F;strokeColor=#E07A5F;fontColor=#393C56;" vertex="1" parent="1">
          <mxGeometry x="950" y="540" width="120" height="60" as="geometry" />
        </mxCell>
        <mxCell id="9o4RHv9QJDKDC0NQb8If-29" style="edgeStyle=orthogonalEdgeStyle;rounded=0;orthogonalLoop=1;jettySize=auto;html=1;entryX=0;entryY=0.5;entryDx=0;entryDy=0;strokeColor=#E07A5F;fontColor=#393C56;fillColor=#F2CC8F;" edge="1" parent="1" source="9o4RHv9QJDKDC0NQb8If-26" target="9o4RHv9QJDKDC0NQb8If-22">
          <mxGeometry relative="1" as="geometry" />
        </mxCell>
        <mxCell id="9o4RHv9QJDKDC0NQb8If-26" value="dim_employee" style="rounded=0;whiteSpace=wrap;html=1;labelBackgroundColor=none;fillColor=#F2CC8F;strokeColor=#E07A5F;fontColor=#393C56;" vertex="1" parent="1">
          <mxGeometry x="750" y="670" width="120" height="60" as="geometry" />
        </mxCell>
        <mxCell id="9o4RHv9QJDKDC0NQb8If-32" style="edgeStyle=orthogonalEdgeStyle;rounded=0;orthogonalLoop=1;jettySize=auto;html=1;exitX=0.5;exitY=0;exitDx=0;exitDy=0;entryX=0.75;entryY=1;entryDx=0;entryDy=0;strokeColor=#E07A5F;fontColor=#393C56;fillColor=#F2CC8F;" edge="1" parent="1" source="9o4RHv9QJDKDC0NQb8If-27" target="9o4RHv9QJDKDC0NQb8If-22">
          <mxGeometry relative="1" as="geometry" />
        </mxCell>
        <mxCell id="9o4RHv9QJDKDC0NQb8If-27" value="dim_customer" style="rounded=0;whiteSpace=wrap;html=1;labelBackgroundColor=none;fillColor=#F2CC8F;strokeColor=#E07A5F;fontColor=#393C56;" vertex="1" parent="1">
          <mxGeometry x="1080" y="800" width="120" height="60" as="geometry" />
        </mxCell>
        <mxCell id="9o4RHv9QJDKDC0NQb8If-33" style="edgeStyle=orthogonalEdgeStyle;rounded=0;orthogonalLoop=1;jettySize=auto;html=1;exitX=0.25;exitY=0;exitDx=0;exitDy=0;entryX=0.433;entryY=0.033;entryDx=0;entryDy=0;entryPerimeter=0;strokeColor=#E07A5F;fontColor=#393C56;fillColor=#F2CC8F;" edge="1" parent="1" source="9o4RHv9QJDKDC0NQb8If-25" target="9o4RHv9QJDKDC0NQb8If-25">
          <mxGeometry relative="1" as="geometry" />
        </mxCell>
      </root>
    </mxGraphModel>
  </diagram>
</mxfile>
